PathFileType	4	(X/Y/Z)	C:\Users\Basilio\Documents\Thesis Gigler\squatting_fais\c3dfiles\019\SJ_pre5\markers_experimental.trc
DataRate	CameraRate	NumFrames	NumMarkers	Units	OrigDataRate	OrigDataStartFrame	OrigNumFrames
200.000000	200.000000	4	59	mm	200.000000	977	1303
Frame#	Time	FHD			LBHD			RBHD			C7			T10			CLAV			LSHO			LUUPA			LMUPA			LDUPA			LLEP			LMEP			LRAD			LUL			LRFIN			RSHO			RUPA1			RMUPA			RDUPA			RLEP			RMEP			RRAD			RUL			RUFIN			LASI			USACR			LSACR			RSACR			LTHI1			LTHI2			LTHI3			LTHI4			LLFC			LTIB1			LTIB2			LTIB3			LTIB4			LLMAL			LMMAL			LHEE			LMT1			LMT2			LMT5			RTHI			RTHI2			RTHI3			RTHI4			RLFC			RTIB1			RTIB2			RTIB3			RTIB4			RLMAL			RMMAL			RHEE			RMT1			RMT2			RMT5			RASI			
		X1	Y1	Z1	X2	Y2	Z2	X3	Y3	Z3	X4	Y4	Z4	X5	Y5	Z5	X6	Y6	Z6	X7	Y7	Z7	X8	Y8	Z8	X9	Y9	Z9	X10	Y10	Z10	X11	Y11	Z11	X12	Y12	Z12	X13	Y13	Z13	X14	Y14	Z14	X15	Y15	Z15	X16	Y16	Z16	X17	Y17	Z17	X18	Y18	Z18	X19	Y19	Z19	X20	Y20	Z20	X21	Y21	Z21	X22	Y22	Z22	X23	Y23	Z23	X24	Y24	Z24	X25	Y25	Z25	X26	Y26	Z26	X27	Y27	Z27	X28	Y28	Z28	X29	Y29	Z29	X30	Y30	Z30	X31	Y31	Z31	X32	Y32	Z32	X33	Y33	Z33	X34	Y34	Z34	X35	Y35	Z35	X36	Y36	Z36	X37	Y37	Z37	X38	Y38	Z38	X39	Y39	Z39	X40	Y40	Z40	X41	Y41	Z41	X42	Y42	Z42	X43	Y43	Z43	X44	Y44	Z44	X45	Y45	Z45	X46	Y46	Z46	X47	Y47	Z47	X48	Y48	Z48	X49	Y49	Z49	X50	Y50	Z50	X51	Y51	Z51	X52	Y52	Z52	X53	Y53	Z53	X54	Y54	Z54	X55	Y55	Z55	X56	Y56	Z56	X57	Y57	Z57	X58	Y58	Z58	X59	Y59	Z59	

978	4.885	94.56337738037111	1406.18798828125	-867.336120605469	-46.41485214233399	1430.85302734375	-1002.651916503906	-42.59788131713868	1429.113037109375	-862.8369750976565	-141.372055053711	1293.037475585938	-933.2303466796877	-321.7162780761719	1059.711791992188	-925.3967285156252	-40.39546585083009	1182.537963867188	-919.819030761719	-70.7727737426758	1248.352661132813	-1074.638061523438	-142.9662628173828	1130.81005859375	-1182.50048828125	-159.6809692382813	1090.10595703125	-1160.400512695313	-181.222900390625	1086.616577148438	-1215.956298828125	-234.5342254638672	1059.3369140625	-1275.716918945313	-302.0191040039063	1081.734252929688	-1257.898071289063	-321.7602233886719	862.4314575195315	-1139.582397460938	-298.0733947753907	827.4363403320315	-1191.587280273438	-300.3468017578126	831.335632324219	-1091.576049804688	-89.63451385498048	1258.216186523438	-787.8182373046877	-217.9064941406251	1206.16357421875	-654.5872192382814	-205.4647674560547	1156.082641601563	-647.1370239257814	-253.1342468261719	1164.285522460938	-611.1068115234376	-288.2391052246094	1099.579467773438	-572.9934692382814	-345.0057067871094	1120.750854492188	-600.7493896484376	-337.5694885253907	879.8485107421877	-696.8333129882814	-315.2255249023438	853.4578247070315	-643.1328125000001	-299.2581481933594	841.4523925781252	-735.1215209960939	-297.3144531250001	820.083190917969	-1021.920471191406	-404.7637329101564	951.6907348632815	-924.2475585937502	-425.8976135253907	925.0559082031252	-951.1066894531252	-424.6493530273439	926.0405883789065	-894.340515136719	-319.7419433593751	626.4716186523439	-1141.379638671875	-246.120590209961	589.0842895507814	-1161.869140625	-207.4107513427735	614.5059814453126	-1150.921752929688	-233.9062652587891	527.2711181640626	-1161.790405273438	-189.3597106933594	449.058319091797	-1160.916137695313	-167.849594116211	303.2941284179688	-1148.908813476563	-242.045639038086	286.9441833496094	-1193.055541992188	-206.8727569580079	269.6286315917969	-1175.06396484375	-235.5441131591797	194.1982879638672	-1143.473876953125	-350.8578186035157	100.0871124267578	-1165.43359375	-318.9698181152344	93.50123596191408	-1084.776611328125	-410.9898071289064	47.94234466552735	-1111.19140625	-193.8408508300782	54.1990432739258	-1135.250244140625	-198.1995086669922	56.50577926635744	-1174.5673828125	-247.8296051025391	35.13740921020509	-1221.058837890625	-345.5750732421876	695.0690917968751	-703.7331542968751	-284.0041503906251	674.6744384765626	-692.6392822265626	-259.4049682617188	690.2750244140626	-708.5755004882814	-259.3198242187501	598.0829467773439	-671.4716796875001	-199.1793060302735	450.8768920898439	-673.2893066406251	-187.9810180664063	264.6434631347657	-708.7481079101564	-280.5462341308594	216.1546630859376	-674.4328613281251	-242.6242980957032	200.4197845458985	-695.7744140625001	-251.3198242187501	161.4506530761719	-737.6453857421876	-347.0188598632813	99.98648834228518	-711.8916625976564	-305.9228820800782	94.89920806884767	-781.6754150390627	-391.0676574707032	45.58814239501954	-778.8011474609377	-191.355224609375	52.11007308959962	-715.9359741210939	-205.3108673095704	57.75915527343751	-671.5708618164064	-260.0106506347657	40.20572662353516	-635.5729370117189	-301.1129150390626	819.7064208984377	-824.273376464844	
979	4.89	92.8700637817383	1412.8828125	-867.2109375000002	-47.23386383056641	1437.306640625	-1002.30419921875	-44.15654373168946	1435.926635742188	-862.4734497070315	-143.04248046875	1299.003540039063	-932.886169433594	-321.5663146972657	1064.348754882813	-925.141052246094	-41.06591415405274	1189.302490234375	-919.6928710937502	-72.10900878906251	1254.903930664063	-1074.597290039063	-143.4236907958985	1136.702758789063	-1182.307006835938	-159.8209838867188	1095.833862304688	-1159.969360351563	-181.3852691650391	1092.2041015625	-1215.56494140625	-234.5125122070313	1064.589599609375	-1275.24658203125	-302.0910034179688	1086.5791015625	-1257.530151367188	-320.4738769531251	866.847106933594	-1139.460571289063	-296.7380676269532	832.2380981445315	-1191.589111328125	-299.4328613281251	835.832702636719	-1091.481811523438	-90.92491149902345	1264.516845703125	-787.6439208984377	-218.978744506836	1211.233764648438	-654.4486694335939	-206.1219177246094	1161.459838867188	-646.9101562500001	-253.8870697021485	1169.097900390625	-610.9416503906251	-288.6865539550782	1103.819580078125	-572.8695068359376	-345.6156921386719	1125.356079101563	-600.7251586914064	-336.6306762695313	883.9163818359377	-696.4525756835939	-314.2496337890626	857.856872558594	-642.6889648437501	-298.1979064941407	845.6170654296877	-734.6068115234376	-295.6360778808594	824.595397949219	-1021.813293457031	-403.657196044922	955.4917602539065	-924.1846923828127	-425.0366210937501	929.2351684570315	-950.9597167968752	-423.6209411621095	930.1268310546877	-893.9785156250002	-319.2211914062501	629.2224121093751	-1141.0478515625	-245.9714050292969	590.8168334960939	-1161.507690429688	-207.2541809082032	616.1033935546876	-1150.63037109375	-234.6500549316407	529.1237792968751	-1161.188354492188	-190.9249267578125	450.2709350585939	-1160.34716796875	-169.1082458496094	304.2878112792969	-1148.369506835938	-243.3409729003907	287.7600708007813	-1192.609741210938	-207.6135253906251	270.2654724121094	-1174.941772460938	-236.1017608642579	194.8685607910157	-1143.3076171875	-351.0160522460938	100.1308364868164	-1165.40673828125	-319.0209045410157	93.5486526489258	-1084.7626953125	-410.9312438964845	47.99897384643555	-1111.123657226563	-193.836166381836	54.19669342041017	-1135.2509765625	-198.1358032226563	56.59005355834962	-1174.691284179688	-247.7556610107422	35.15365600585938	-1221.11865234375	-344.3879699707032	698.0352783203126	-703.7360839843751	-283.1452941894532	676.9807739257814	-692.5897216796876	-258.4570617675782	692.0905761718751	-708.4133300781251	-259.3847351074219	600.0264892578126	-671.7133178710939	-200.905014038086	452.0382690429689	-673.9114379882814	-188.9419097900391	265.3828125000001	-708.7844848632814	-281.2790222167969	216.6157836914063	-674.6419677734376	-243.4519805908204	200.9639739990235	-696.0171508789064	-251.6757965087891	161.7271575927735	-737.7505493164064	-347.1430358886719	100.0174560546875	-711.9011840820314	-306.0159301757813	94.97771453857423	-781.6350708007815	-391.0758361816407	45.59046173095704	-778.8010253906252	-191.3987579345703	52.13339233398439	-715.9110107421876	-205.4016265869141	57.80593872070314	-671.5230102539064	-260.0007324218751	40.1916732788086	-635.5367431640626	-299.5533752441407	824.0139160156252	-823.9629516601565	
980	4.895	91.07958984375001	1419.751098632813	-867.2185058593752	-49.50611877441408	1444.318359375	-1002.051452636719	-45.89519119262696	1443.007568359375	-862.435485839844	-144.3265686035157	1304.927001953125	-932.7490844726565	-321.4304809570313	1069.02880859375	-925.0056152343752	-42.06766510009766	1196.176391601563	-919.6099243164065	-73.33570098876955	1261.514282226563	-1074.35693359375	-143.7947845458985	1142.713745117188	-1181.96337890625	-160.1815032958985	1101.822631835938	-1159.603515625	-181.6204986572266	1097.942749023438	-1215.241333007813	-234.5389862060547	1069.908325195313	-1274.898559570313	-302.2284851074219	1091.458374023438	-1257.102905273438	-319.1085510253907	871.307800292969	-1139.30859375	-295.0642089843751	837.011901855469	-1191.592163085938	-297.8503417968751	840.3796386718752	-1091.448852539063	-92.2803192138672	1270.854248046875	-787.4809570312502	-220.0465850830079	1216.313354492188	-654.2587280273439	-206.8248291015626	1166.847412109375	-647.0065307617189	-254.7126617431641	1174.160766601563	-610.8333129882814	-288.7730407714844	1108.469604492188	-572.7938232421876	-345.7156677246094	1129.375610351563	-600.5358276367189	-335.7939758300782	888.1466064453127	-696.1388549804689	-313.4528503417969	862.2498779296877	-642.3437500000001	-296.9748229980469	849.790710449219	-734.1548461914064	-294.0606689453126	829.071716308594	-1021.695373535156	-402.3450317382814	959.492370605469	-924.0607910156252	-423.6718750000001	933.0228271484377	-950.850036621094	-422.197235107422	933.8626708984377	-893.864440917969	-318.9656677246094	632.1351928710939	-1140.7529296875	-246.1700592041016	592.9177856445314	-1161.043579101563	-206.9329833984376	617.5048217773439	-1150.228515625	-235.3349609375001	530.8576049804689	-1160.556518554688	-192.8741760253907	451.6318359375001	-1159.828735351563	-170.4362335205078	305.3347473144532	-1147.9365234375	-244.4042663574219	288.3269653320313	-1192.305541992188	-208.5188140869141	271.1804504394532	-1174.706420898438	-236.9586639404297	195.6214447021485	-1143.074340820313	-351.1160583496094	100.1651763916016	-1165.295166015625	-319.1379394531251	93.61716461181642	-1084.692260742188	-411.034149169922	48.02882766723634	-1111.213134765625	-193.7702026367188	54.23389053344728	-1135.20458984375	-198.0894012451172	56.64833068847658	-1174.699584960938	-247.8733978271485	35.1520004272461	-1220.869995117188	-342.9884033203126	700.8999633789064	-703.7234497070314	-282.0578002929688	679.0661010742189	-692.5982666015626	-257.0876770019532	694.1245727539064	-708.4443969726564	-259.1591796875001	601.6901855468751	-671.9013671875001	-202.3540649414063	452.9006652832032	-674.3329467773439	-190.9109954833985	271.6030578613282	-710.2798461914064	-281.4477233886719	216.8076171875001	-674.6428222656251	-239.3079833984376	202.8723907470704	-694.4607543945314	-251.9931793212891	162.1807708740235	-737.7993774414064	-347.2849426269532	100.0349426269532	-711.9465332031251	-306.1610107421876	95.04866027832033	-781.6303710937502	-391.0899658203126	45.5644760131836	-778.7962646484377	-191.4142456054688	52.15357589721681	-715.9221191406251	-205.4886169433594	57.86083984375001	-671.4829711914064	-259.9916076660157	40.19924545288087	-635.5514526367189	-297.6571960449219	829.4072875976565	-824.1044921875002	
981	4.9	89.60067749023439	1426.44091796875	-867.015808105469	-50.99170684814455	1450.991577148438	-1001.913696289063	-47.51949310302735	1449.606201171875	-862.1947021484377	-145.9812316894532	1310.859130859375	-932.5120849609377	-321.1565551757813	1073.585693359375	-924.8579101562502	-42.57244110107423	1202.88671875	-919.2866210937502	-74.53308105468751	1268.32080078125	-1074.02197265625	-144.2489776611328	1148.698486328125	-1181.665283203125	-160.2813720703125	1107.797485351563	-1159.185424804688	-181.7865142822266	1103.621948242188	-1214.814208984375	-234.5131530761719	1075.1865234375	-1274.447265625	-302.4386901855469	1096.38818359375	-1256.77734375	-317.9912719726563	876.036071777344	-1139.300170898438	-293.5986633300782	841.8658447265627	-1191.625854492188	-296.4227294921876	844.9033813476565	-1091.40283203125	-93.64664459228517	1277.103759765625	-787.1585693359377	-221.1344299316407	1221.896118164063	-654.0321044921876	-207.4249114990235	1172.254516601563	-646.9560546875001	-255.2942962646485	1178.978515625	-610.6552734375001	-289.0018310546876	1113.349487304688	-572.7921142578126	-346.1440124511719	1133.669921875	-600.4918212890626	-334.9511413574219	892.5388793945315	-695.8436889648439	-312.5708312988282	866.6926269531252	-642.0128173828126	-296.0833740234376	854.0216064453127	-733.7445678710939	-292.4446716308594	833.6233520507815	-1021.724304199219	-401.4948120117189	963.5630493164065	-923.7632446289065	-422.2479858398439	936.729187011719	-950.6605224609377	-420.9608459472657	937.9456787109377	-893.682556152344	-318.6022338867188	635.0056152343751	-1140.4609375	-246.0618591308594	594.7221679687501	-1160.66455078125	-206.8114166259766	619.1898803710939	-1149.908203125	-236.1079101562501	532.7244873046876	-1160.007690429688	-193.8997955322266	452.6228027343751	-1159.059326171875	-171.5856323242188	306.8628234863282	-1147.175903320313	-245.8048248291016	289.3047790527344	-1191.826171875	-209.8092956542969	272.2672424316407	-1174.146118164063	-237.6236877441407	196.2508697509766	-1142.853759765625	-351.2391967773438	100.2420043945313	-1165.1708984375	-319.2515869140626	93.61036682128908	-1084.647338867188	-410.992889404297	47.98152923583985	-1111.167358398438	-193.8309478759766	54.28598785400392	-1135.206909179688	-198.1105194091797	56.69211196899415	-1174.506958007813	-247.8061065673829	35.19086837768555	-1220.972778320313	-341.6376037597657	703.7633666992189	-703.7155151367189	-281.0081176757813	681.3814086914064	-692.7484741210939	-255.9209136962891	695.9818115234376	-708.3946533203126	-259.2925720214844	603.7087402343751	-672.1192016601564	-204.1377716064454	454.1488342285157	-674.9520263671876	-191.1831359863282	267.1138000488282	-709.5213012695314	-282.9024658203126	217.4499816894532	-675.1221923828126	-244.9179382324219	202.0859069824219	-696.2644042968751	-252.4627075195313	163.0686492919922	-737.7501831054689	-347.3970642089844	100.0336227416992	-711.9678955078126	-306.3466796875001	95.11614227294923	-781.636413574219	-391.0581054687501	45.56298828125001	-778.8069458007815	-191.4595489501953	52.11391830444337	-715.9517211914064	-205.5026550292969	57.92705535888673	-671.4633178710939	-260.0043945312501	40.20249938964844	-635.5615844726564	-296.4022521972657	833.0986938476565	-823.4290161132815	
